<svg role="img" viewBox="0 0 24 24" xmlns="http://www.w3.org/2000/svg" id="Bugcrowd--Streamline-Simple-Icons" height="24" width="24">
  <desc>
    Bugcrowd Streamline Icon: https://streamlinehq.com
  </desc>
  <title>Bugcrowd</title>
  <path d="M24 12 18 1.387H6L0 12l6 10.613h12zm-5.782 1.658c-0.003 0.825 -0.122 1.569 -0.354 2.231a5.05 5.05 0 0 1 -0.99 1.708 4.316 4.316 0 0 1 -1.503 1.093 4.69 4.69 0 0 1 -1.896 0.385 4.158 4.158 0 0 1 -1.145 -0.152 3.754 3.754 0 0 1 -0.868 -0.36 3.792 3.792 0 0 1 -0.601 -0.435 3.023 3.023 0 0 1 -0.466 -0.514h-0.04l0.02 0.193c0.011 0.166 0.018 0.331 0.02 0.497v0.528H7.961V7.062c0 -0.151 -0.04 -0.263 -0.114 -0.337 -0.077 -0.074 -0.19 -0.109 -0.33 -0.109h-0.811V4.425h2.452c0.473 -0.003 0.824 0.108 1.048 0.331 0.222 0.223 0.333 0.576 0.33 1.049v3.003c-0.003 0.258 -0.01 0.467 -0.02 0.626l-0.02 0.247h0.04a2.898 2.898 0 0 1 0.463 -0.507c0.156 -0.143 0.354 -0.284 0.6 -0.426 0.245 -0.142 0.538 -0.261 0.876 -0.36 0.38 -0.1 0.77 -0.15 1.162 -0.148 0.702 0.003 1.334 0.135 1.894 0.395a4.118 4.118 0 0 1 1.446 1.11c0.4 0.48 0.707 1.052 0.92 1.715 0.212 0.658 0.317 1.392 0.32 2.198m-2.803 1.406c0.138 -0.399 0.206 -0.852 0.209 -1.366 -0.003 -0.659 -0.112 -1.231 -0.328 -1.718 -0.216 -0.484 -0.517 -0.859 -0.902 -1.125a2.347 2.347 0 0 0 -1.344 -0.404 2.57 2.57 0 0 0 -0.969 0.186 2.372 2.372 0 0 0 -0.83 0.589 2.839 2.839 0 0 0 -0.579 1.015c-0.141 0.413 -0.212 0.906 -0.216 1.477 0 0.397 0.053 0.792 0.159 1.174 0.101 0.366 0.265 0.712 0.483 1.02 0.211 0.3 0.486 0.548 0.805 0.722 0.32 0.176 0.698 0.267 1.127 0.27 0.343 0.002 0.683 -0.07 0.997 -0.213a2.43 2.43 0 0 0 0.824 -0.623c0.24 -0.273 0.428 -0.607 0.564 -1.004Z" fill="#000000" stroke-width="1"></path>
</svg>