<svg role="img" viewBox="0 0 24 24" xmlns="http://www.w3.org/2000/svg" id="Hackthebox--Streamline-Simple-Icons" height="24" width="24">
  <desc>
    Hackthebox Streamline Icon: https://streamlinehq.com
  </desc>
  <title>Hack The Box</title>
  <path d="m22.5106 6.4566 0.0008 -0.0123a0.888 0.888 0 0 0 -0.2717 -0.6384c-0.0084 -0.0084 -0.018 -0.0155 -0.0267 -0.0235 -0.0186 -0.0166 -0.0371 -0.0333 -0.0572 -0.0484 -0.0193 -0.0147 -0.04 -0.0276 -0.0607 -0.0406 -0.0096 -0.006 -0.0182 -0.0131 -0.0281 -0.0188L12.4576 0.1266a0.891 0.891 0 0 0 -0.9223 0.0043L1.933 5.6744c-0.0107 0.0062 -0.0203 0.014 -0.0307 0.0205 -0.0073 0.0047 -0.015 0.008 -0.0223 0.0128 -0.007 0.0047 -0.013 0.0106 -0.02 0.0155a0.8769 0.8769 0 0 0 -0.147 0.1333l-0.0026 0.003a0.8872 0.8872 0 0 0 -0.2218 0.5847l0.0009 0.014c-0.0002 0.0088 -0.0015 0.0176 -0.0015 0.0264v11.0708c0 0.3277 0.1802 0.6288 0.469 0.7836l9.5986 5.5417c0.0076 0.0044 0.0158 0.0075 0.0236 0.0117a0.8754 0.8754 0 0 0 0.166 0.0687c0.0134 0.004 0.0266 0.0083 0.0401 0.0117a0.8793 0.8793 0 0 0 0.072 0.0142c0.0117 0.0019 0.0232 0.0045 0.0349 0.006a0.835 0.835 0 0 0 0.2157 0c0.0117 -0.0015 0.0232 -0.0041 0.0348 -0.006a0.9 0.9 0 0 0 0.072 -0.0142c0.0135 -0.0034 0.0267 -0.0077 0.04 -0.0117a0.895 0.895 0 0 0 0.0646 -0.0217 0.9134 0.9134 0 0 0 0.1015 -0.047c0.0078 -0.0042 0.016 -0.0072 0.0236 -0.0117l9.5986 -5.5417a0.8888 0.8888 0 0 0 0.469 -0.7836V6.4779c0 -0.0071 -0.0012 -0.0142 -0.0014 -0.0213zM5.2543 6.0822l6.5367 -3.774a0.4182 0.4182 0 0 1 0.4182 0l6.5366 3.774a0.4182 0.4182 0 0 1 0 0.7243l-6.5367 3.774a0.4182 0.4182 0 0 1 -0.4182 0l-6.5366 -3.774a0.4182 0.4182 0 0 1 0 -0.7243zm5.6134 14.3449a0.4172 0.4172 0 0 1 -0.626 0.3613L3.718 17.0218a0.4173 0.4173 0 0 1 -0.2086 -0.3613V9.1279a0.4172 0.4172 0 0 1 0.6258 -0.3613l6.524 3.7666a0.4172 0.4172 0 0 1 0.2086 0.3614v7.5325zm9.623 -3.7666a0.4173 0.4173 0 0 1 -0.2086 0.3613l-6.5239 3.7666a0.4172 0.4172 0 0 1 -0.6259 -0.3613v-7.5325c0 -0.149 0.0796 -0.2868 0.2087 -0.3614l6.5239 -3.7666a0.4172 0.4172 0 0 1 0.6258 0.3613v7.5326z" fill="#000000" stroke-width="1"></path>
</svg>