<svg role="img" viewBox="0 0 24 24" xmlns="http://www.w3.org/2000/svg" id="Notion--Streamline-Simple-Icons" height="24" width="24">
  <desc>
    Notion Streamline Icon: https://streamlinehq.com
  </desc>
  <title>Notion</title>
  <path d="M4.459 4.208c0.746 0.606 1.026 0.56 2.428 0.466l13.215 -0.793c0.28 0 0.047 -0.28 -0.046 -0.326L17.86 1.968c-0.42 -0.326 -0.981 -0.7 -2.055 -0.607L3.01 2.295c-0.466 0.046 -0.56 0.28 -0.374 0.466zm0.793 3.08v13.904c0 0.747 0.373 1.027 1.214 0.98l14.523 -0.84c0.841 -0.046 0.935 -0.56 0.935 -1.167V6.354c0 -0.606 -0.233 -0.933 -0.748 -0.887l-15.177 0.887c-0.56 0.047 -0.747 0.327 -0.747 0.933zm14.337 0.745c0.093 0.42 0 0.84 -0.42 0.888l-0.7 0.14v10.264c-0.608 0.327 -1.168 0.514 -1.635 0.514 -0.748 0 -0.935 -0.234 -1.495 -0.933l-4.577 -7.186v6.952L12.21 19s0 0.84 -1.168 0.84l-3.222 0.186c-0.093 -0.186 0 -0.653 0.327 -0.746l0.84 -0.233V9.854L7.822 9.76c-0.094 -0.42 0.14 -1.026 0.793 -1.073l3.456 -0.233 4.764 7.279v-6.44l-1.215 -0.139c-0.093 -0.514 0.28 -0.887 0.747 -0.933zM1.936 1.035l13.31 -0.98c1.634 -0.14 2.055 -0.047 3.082 0.7l4.249 2.986c0.7 0.513 0.934 0.653 0.934 1.213v16.378c0 1.026 -0.373 1.634 -1.68 1.726l-15.458 0.934c-0.98 0.047 -1.448 -0.093 -1.962 -0.747l-3.129 -4.06c-0.56 -0.747 -0.793 -1.306 -0.793 -1.96V2.667c0 -0.839 0.374 -1.54 1.447 -1.632z" fill="#000000" stroke-width="1"></path>
</svg>