<svg role="img" viewBox="0 0 24 24" xmlns="http://www.w3.org/2000/svg" id="Rstudioide--Streamline-Simple-Icons" height="24" width="24">
  <desc>
    Rstudioide Streamline Icon: https://streamlinehq.com
  </desc>
  <title>RStudio IDE</title>
  <path d="M12.178 0.002a12.002 12.002 0 0 0 -8.662 3.515 12.002 12.002 0 0 0 0 16.97 12.002 12.002 0 0 0 16.97 0 12.002 12.002 0 0 0 0 -16.97A12.002 12.002 0 0 0 12.179 0.002zM7.77 5.995c0.562 0.128 1.05 0.217 1.663 0.217 0.921 0 1.863 -0.217 2.786 -0.217 1.79 0 3.45 0.814 3.45 2.8 0 1.54 -0.921 2.517 -2.35 2.93l2.788 4.107h1.301v1.01h-1.986l-3.293 -4.934h-1.757v3.924h1.718v1.01H7.77v-1.01h1.483V7.134L7.77 6.951v-0.957zm4.466 1.012c-0.596 0 -1.213 0.053 -1.864 0.127v3.798l0.941 0.02c2.298 0.034 3.183 -0.85 3.183 -2.026 0 -1.376 -0.997 -1.919 -2.26 -1.919z" fill="#000000" stroke-width="1"></path>
</svg>