<svg role="img" viewBox="0 0 24 24" xmlns="http://www.w3.org/2000/svg" id="Solana--Streamline-Simple-Icons" height="24" width="24">
  <desc>
    Solana Streamline Icon: https://streamlinehq.com
  </desc>
  <title>Solana</title>
  <path d="m23.8764 18.0313 -3.962 4.1393a0.9201 0.9201 0 0 1 -0.306 0.2106 0.9407 0.9407 0 0 1 -0.367 0.0742H0.4599a0.4689 0.4689 0 0 1 -0.2522 -0.0733 0.4513 0.4513 0 0 1 -0.1696 -0.1962 0.4375 0.4375 0 0 1 -0.0314 -0.2545 0.4438 0.4438 0 0 1 0.117 -0.2298l3.9649 -4.1393a0.92 0.92 0 0 1 0.3052 -0.2102 0.9407 0.9407 0 0 1 0.3658 -0.0746H23.54a0.4692 0.4692 0 0 1 0.2523 0.0734 0.4531 0.4531 0 0 1 0.1697 0.196 0.438 0.438 0 0 1 0.0313 0.2547 0.4442 0.4442 0 0 1 -0.1169 0.2297zm-3.962 -8.3355a0.9202 0.9202 0 0 0 -0.306 -0.2106 0.941 0.941 0 0 0 -0.367 -0.0742H0.4599a0.4687 0.4687 0 0 0 -0.2522 0.0734 0.4513 0.4513 0 0 0 -0.1696 0.1961 0.4376 0.4376 0 0 0 -0.0314 0.2546 0.444 0.444 0 0 0 0.117 0.2297l3.9649 4.1394a0.9204 0.9204 0 0 0 0.3052 0.2102c0.1154 0.049 0.24 0.0744 0.3658 0.0746H23.54a0.469 0.469 0 0 0 0.2523 -0.0734 0.453 0.453 0 0 0 0.1697 -0.1961 0.4382 0.4382 0 0 0 0.0313 -0.2546 0.4444 0.4444 0 0 0 -0.1169 -0.2297zM0.46 6.7225h18.7815a0.9411 0.9411 0 0 0 0.367 -0.0742 0.9202 0.9202 0 0 0 0.306 -0.2106l3.962 -4.1394a0.4442 0.4442 0 0 0 0.117 -0.2297 0.4378 0.4378 0 0 0 -0.0314 -0.2546 0.453 0.453 0 0 0 -0.1697 -0.196 0.469 0.469 0 0 0 -0.2523 -0.0734H4.7596a0.941 0.941 0 0 0 -0.3658 0.0745 0.9203 0.9203 0 0 0 -0.3052 0.2102L0.1246 5.9687a0.4438 0.4438 0 0 0 -0.1169 0.2295 0.4375 0.4375 0 0 0 0.0312 0.2544 0.4512 0.4512 0 0 0 0.1692 0.196 0.4689 0.4689 0 0 0 0.2518 0.0739z" fill="#000000" stroke-width="1"></path>
</svg>